<?xml version="1.0" standalone="no"?>
<!DOCTYPE svg PUBLIC "-//W3C//DTD SVG 20010904//EN"
 "http://www.w3.org/TR/2001/REC-SVG-20010904/DTD/svg10.dtd">
<svg version="1.0" xmlns="http://www.w3.org/2000/svg"
 width="450.000000pt" height="450.000000pt" viewBox="0 0 450.000000 450.000000"
 preserveAspectRatio="xMidYMid meet">
<metadata>
Created by potrace 1.11, written by Peter Selinger 2001-2013
</metadata>
<g transform="translate(0.000000,450.000000) scale(0.100000,-0.100000)"
fill="#000000" stroke="none">
<path d="M2235 3720 c-4 -6 -11 -8 -16 -4 -14 8 -81 -16 -102 -37 -10 -11 -22
-19 -27 -19 -6 0 -10 -4 -10 -10 0 -5 -9 -19 -19 -29 -31 -31 -41 -86 -41
-232 0 -84 -4 -139 -11 -146 -6 -6 -28 -9 -48 -6 -34 5 -39 3 -49 -23 -8 -21
-10 -256 -9 -805 1 -561 -2 -780 -10 -790 -36 -45 -53 -184 -32 -263 19 -68
69 -161 97 -179 7 -4 22 -19 35 -31 99 -104 275 -129 422 -61 78 35 195 155
195 199 0 9 4 16 9 16 14 0 34 116 29 177 -2 32 -11 74 -20 93 -38 83 -38 90
-38 877 l0 773 -27 11 c-14 5 -31 8 -37 6 -6 -3 -19 0 -28 5 -16 8 -18 26 -18
156 0 122 -4 154 -19 188 -23 51 -117 125 -161 129 -17 1 -33 5 -37 9 -9 9
-21 7 -28 -4z m74 -49 c8 -5 -5 -7 -35 -4 -68 6 -77 11 -24 12 25 0 51 -3 59
-8z m105 -80 c-5 -5 -64 49 -64 59 0 4 16 -7 34 -24 19 -17 33 -32 30 -35z
m-296 18 c-18 -19 -38 -43 -45 -54 -11 -19 -11 -19 -6 2 5 21 73 97 80 89 2
-2 -11 -19 -29 -37z m322 -958 c4 -716 8 -901 18 -914 11 -12 11 -17 0 -23 -7
-4 -10 -3 -5 1 4 5 0 16 -8 25 -13 14 -15 137 -17 917 -2 496 -1 899 2 896 3
-2 7 -409 10 -902z m-370 -13 c0 -490 -2 -889 -5 -886 -3 3 -5 378 -5 834 -1
1022 -1 944 5 944 3 0 5 -401 5 -892z m-61 548 c13 -15 13 -22 12 -768 -1
-529 -4 -667 -13 -665 -7 1 -12 -3 -11 -10 2 -7 -4 -10 -12 -7 -8 4 -15 1 -15
-5 0 -6 -9 -11 -20 -11 -19 0 -19 12 -18 728 0 417 4 732 9 738 5 6 20 12 34
12 14 0 29 -6 34 -12z m540 0 c15 -18 16 -1445 1 -1460 -7 -7 -10 -6 -10 2 0
7 -6 12 -14 12 -7 0 -21 11 -30 25 -14 22 -16 96 -16 718 0 526 3 696 12 705
16 16 43 15 57 -2z m-237 -165 c17 -22 18 -52 18 -635 0 -336 0 -632 0 -657 0
-42 3 -47 41 -72 22 -15 44 -27 47 -27 16 -1 63 -84 72 -126 12 -51 4 -136
-16 -174 -43 -82 -142 -140 -240 -140 -39 0 -56 4 -60 15 -4 8 -14 15 -23 15
-26 0 -82 46 -113 91 -60 90 -43 229 38 307 24 23 50 42 58 42 36 0 37 14 36
674 0 558 2 650 15 675 23 45 94 52 127 12z m-262 -1285 c0 -3 -4 -8 -10 -11
-5 -3 -10 -1 -10 4 0 6 5 11 10 11 6 0 10 -2 10 -4z m-60 -59 c0 -2 -10 -12
-22 -23 l-23 -19 19 23 c18 21 26 27 26 19z m565 -17 c-3 -5 -14 -10 -23 -9
-14 0 -13 2 3 9 27 11 27 11 20 0z m45 -134 c0 -26 -6 -18 -14 19 -5 22 -4 26
4 15 5 -8 10 -24 10 -34z m-693 -8 c-3 -8 -6 -5 -6 6 -1 11 2 17 5 13 3 -3 4
-12 1 -19z m-10 -85 c-3 -10 -5 -2 -5 17 0 19 2 27 5 18 2 -10 2 -26 0 -35z
m710 -5 c-2 -13 -4 -5 -4 17 -1 22 1 32 4 23 2 -10 2 -28 0 -40z m-7 -58 c0
-5 -4 -10 -10 -10 -5 0 -10 5 -10 10 0 6 5 10 10 10 6 0 10 -4 10 -10z m-40
-110 c0 -5 -5 -10 -11 -10 -5 0 -7 5 -4 10 3 6 8 10 11 10 2 0 4 -4 4 -10z
m-571 -54 c-3 -3 -11 5 -18 17 -13 21 -12 21 5 5 10 -10 16 -20 13 -22z m561
30 c0 -2 -12 -12 -27 -21 l-28 -18 19 21 c17 20 36 29 36 18z m-510 -76 c0
-15 -5 -12 -26 11 -19 22 -19 22 4 10 12 -6 22 -16 22 -21z m440 9 c-7 -11
-14 -18 -17 -15 -3 3 0 12 7 21 18 21 23 19 10 -6z m-370 -45 c0 -2 -7 -4 -15
-4 -8 0 -15 4 -15 10 0 5 7 7 15 4 8 -4 15 -8 15 -10z m128 -31 c-10 -2 -26
-2 -35 0 -10 3 -2 5 17 5 19 0 27 -2 18 -5z m65 0 c-7 -2 -21 -2 -30 0 -10 3
-4 5 12 5 17 0 24 -2 18 -5z"/>
<path d="M2214 3005 l-24 -24 0 -649 c0 -357 -2 -656 -6 -665 -3 -10 -12 -17
-18 -17 -23 0 -80 -50 -112 -97 -29 -43 -32 -53 -29 -114 5 -107 64 -182 170
-215 52 -17 56 -17 120 5 71 23 101 49 143 125 51 94 9 221 -96 287 l-54 34 1
650 c1 562 -1 653 -13 671 -24 33 -54 36 -82 9z"/>
</g>
</svg>
